STARTFONT 2.1
COMMENT  
COMMENT  
COMMENT  
COMMENT  WARNING:  This bdf file was generated from a font server using
COMMENT  fstobdf.  The resulting font is subject to the same copyright,
COMMENT  license, and trademark restrictions as the original font.  The
COMMENT  authors and distributors of fstobdf disclaim all liability for
COMMENT  misuse of the program or its output.
COMMENT  
FONT -star division-starbats-medium-r-normal--15-140-75-75-p-0-stardivision-fontspecific
SIZE 14 75 75
FONTBOUNDINGBOX 15 17 0 -4
STARTPROPERTIES 60
FONT "-star division-starbats-medium-r-normal--15-140-75-75-p-0-stardivision-fontspecific"
FONT_TYPE "TrueType"
TECHNOLOGY "TrueType"
FOUNDRY ""
FAMILY_NAME "starbats"
WEIGHT_NAME "medium"
SLANT "r"
SETWIDTH_NAME "normal"
ADD_STYLE_NAME ""
PIXEL_SIZE 14
POINT_SIZE 140
RESOLUTION_X 75
RESOLUTION_Y 75
SPACING "p"
AVERAGE_WIDTH 80
CHARSET_REGISTRY "stardivision"
CHARSET_ENCODING "fontspecific"
AVG_LOWERCASE_WIDTH 12
RAW_AVG_LOWERCASE_WIDTH 831
SUBSCRIPT_X 0
SUBSCRIPT_Y 2
SUBSCRIPT_SIZE 3
RAW_SUBSCRIPT_X 0
RAW_SUBSCRIPT_Y 211
RAW_SUBSCRIPT_SIZE 180
SUPERSCRIPT_X 0
SUPERSCRIPT_Y 8
SUPERSCRIPT_SIZE 3
RAW_SUPERSCRIPT_X 0
RAW_SUPERSCRIPT_Y 539
RAW_SUPERSCRIPT_SIZE 180
STRIKEOUT_ASCENT 4
STRIKEOUT_DESCENT -3
RAW_STRIKEOUT_ASCENT 308
RAW_STRIKEOUT_DESCENT -258
RELATIVE_SETWIDTH 50
RELATIVE_WEIGHT 40
_GALLIUM_PANOSE "2 11 5 0 0 0 0 0 0 0"
UNDERLINE_POSITION 0
UNDERLINE_THICKNESS 0
RAW_UNDERLINE_POSITION 0
RAW_UNDERLINE_THICKNESS 0
ITALIC_ANGLE 0
NORM_SPACE 4
RAW_NORM_SPACE 280
CAP_HEIGHT 8
RAW_CAP_HEIGHT 557
X_HEIGHT 8
RAW_X_HEIGHT 520
RAW_PIXEL_SIZE 1000
RAW_POINT_SIZE 9636
FONT_ASCENT 13
FONT_DESCENT 3
RAW_ASCENT 898
RAW_DESCENT 212
RAW_AVERAGE_WIDTH 6513
COPYRIGHT ""
FACE_NAME "StarB TT"
NOTICE ""
DEFAULT_CHAR 0
ENDPROPERTIES
CHARS 224
STARTCHAR space
ENCODING 32
SWIDTH 274 0
DWIDTH 4 0
BBX 0 0 0 0
ATTRIBUTES 0117
BITMAP
ENDCHAR
STARTCHAR exclam
ENCODING 33
SWIDTH 822 0
DWIDTH 12 0
BBX 10 11 1 0
ATTRIBUTES 034c
BITMAP
1c00
2300
4080
9240
9240
8040
a140
a240
5c80
2300
1c00
ENDCHAR
STARTCHAR quotedbl
ENCODING 34
SWIDTH 754 0
DWIDTH 11 0
BBX 8 8 2 1
ATTRIBUTES 02ec
BITMAP
3c
7e
ff
ff
ff
ff
7e
3c
ENDCHAR
STARTCHAR numbersign
ENCODING 35
SWIDTH 960 0
DWIDTH 14 0
BBX 11 11 2 0
ATTRIBUTES 03b8
BITMAP
1e00
6380
40c0
80c0
8060
8060
8060
40e0
40c0
33c0
0f00
ENDCHAR
STARTCHAR dollar
ENCODING 36
SWIDTH 754 0
DWIDTH 11 0
BBX 8 8 2 1
ATTRIBUTES 02ec
BITMAP
ff
ff
ff
ff
ff
ff
ff
ff
ENDCHAR
STARTCHAR percent
ENCODING 37
SWIDTH 891 0
DWIDTH 13 0
BBX 10 11 2 0
ATTRIBUTES 037c
BITMAP
ffc0
ffc0
8040
8040
8040
8040
8040
8040
8040
8040
ffc0
ENDCHAR
STARTCHAR ampersand
ENCODING 38
SWIDTH 891 0
DWIDTH 13 0
BBX 10 11 2 0
ATTRIBUTES 037c
BITMAP
ffc0
ffc0
ffc0
c0c0
c0c0
c0c0
c0c0
c0c0
c0c0
ffc0
ffc0
ENDCHAR
STARTCHAR apostrophe
ENCODING 39
SWIDTH 891 0
DWIDTH 13 0
BBX 10 11 2 0
ATTRIBUTES 037c
BITMAP
ff80
80c0
80c0
80c0
80c0
80c0
80c0
80c0
80c0
ffc0
7fc0
ENDCHAR
STARTCHAR parenleft
ENCODING 40
SWIDTH 891 0
DWIDTH 13 0
BBX 10 11 2 0
ATTRIBUTES 037c
BITMAP
7fc0
ffc0
ffc0
80c0
80c0
80c0
80c0
80c0
80c0
80c0
ff80
ENDCHAR
STARTCHAR parenright
ENCODING 41
SWIDTH 480 0
DWIDTH 7 0
BBX 4 6 1 2
ATTRIBUTES 01cb
BITMAP
20
60
f0
f0
60
20
ENDCHAR
STARTCHAR asterisk
ENCODING 42
SWIDTH 754 0
DWIDTH 11 0
BBX 8 12 2 -1
ATTRIBUTES 02ec
BITMAP
08
18
3c
3c
7e
ff
ff
7e
3c
18
18
08
ENDCHAR
STARTCHAR plus
ENCODING 43
SWIDTH 960 0
DWIDTH 14 0
BBX 11 12 2 -1
ATTRIBUTES 03db
BITMAP
0400
0e00
1f00
3f80
7fc0
ffe0
7fc0
3f80
1f00
1f00
0e00
0400
ENDCHAR
STARTCHAR comma
ENCODING 44
SWIDTH 891 0
DWIDTH 13 0
BBX 10 11 2 0
ATTRIBUTES 037c
BITMAP
0400
0c00
1e00
0c00
6580
f3c0
6180
2c80
1e00
0c00
0400
ENDCHAR
STARTCHAR minus
ENCODING 45
SWIDTH 548 0
DWIDTH 8 0
BBX 6 6 1 2
ATTRIBUTES 0244
BITMAP
30
78
fc
78
30
10
ENDCHAR
STARTCHAR period
ENCODING 46
SWIDTH 960 0
DWIDTH 14 0
BBX 11 11 2 0
ATTRIBUTES 03b8
BITMAP
0f00
3fc0
61c0
40e0
8060
8060
8060
8040
40c0
4180
3e00
ENDCHAR
STARTCHAR slash
ENCODING 47
SWIDTH 822 0
DWIDTH 12 0
BBX 9 11 1 0
ATTRIBUTES 031b
BITMAP
8000
c000
6000
3800
2600
2180
1f00
3c00
7000
6000
8000
ENDCHAR
STARTCHAR 0
ENCODING 48
SWIDTH 960 0
DWIDTH 14 0
BBX 11 11 2 0
ATTRIBUTES 03d3
BITMAP
0c00
0600
0300
0180
00c0
ffe0
00c0
0080
0100
0300
0600
ENDCHAR
STARTCHAR 1
ENCODING 49
SWIDTH 1097 0
DWIDTH 16 0
BBX 13 11 1 0
ATTRIBUTES 042b
BITMAP
0f00
0780
03c0
01e0
fff0
fff8
fff0
01e0
03c0
0780
0f00
ENDCHAR
STARTCHAR 2
ENCODING 50
SWIDTH 754 0
DWIDTH 11 0
BBX 9 9 1 2
ATTRIBUTES 0314
BITMAP
0080
0100
0200
0400
0800
d800
7000
7000
2000
ENDCHAR
STARTCHAR 3
ENCODING 51
SWIDTH 891 0
DWIDTH 13 0
BBX 10 10 2 0
ATTRIBUTES 037c
BITMAP
ffc0
8040
b240
b640
9c40
9c40
b740
a140
8040
ffc0
ENDCHAR
STARTCHAR 4
ENCODING 52
SWIDTH 891 0
DWIDTH 13 0
BBX 11 11 1 0
ATTRIBUTES 037c
BITMAP
ffe0
ffc0
80c0
8140
8340
a640
bc40
9840
9840
8040
ffc0
ENDCHAR
STARTCHAR 5
ENCODING 53
SWIDTH 891 0
DWIDTH 13 0
BBX 10 11 2 0
ATTRIBUTES 037c
BITMAP
1e00
3f00
7f80
fcc0
0040
0040
0040
fcc0
7d80
3f00
1e00
ENDCHAR
STARTCHAR 6
ENCODING 54
SWIDTH 754 0
DWIDTH 11 0
BBX 10 5 0 1
ATTRIBUTES 0303
BITMAP
bfc0
fe40
fe00
fe00
0c00
ENDCHAR
STARTCHAR 7
ENCODING 55
SWIDTH 685 0
DWIDTH 10 0
BBX 10 7 0 0
ATTRIBUTES 029f
BITMAP
0600
3c00
3a00
5980
7180
7f80
8000
ENDCHAR
STARTCHAR 8
ENCODING 56
SWIDTH 754 0
DWIDTH 11 0
BBX 9 6 1 1
ATTRIBUTES 02e4
BITMAP
f000
e800
de00
6700
7980
1f80
ENDCHAR
STARTCHAR 9
ENCODING 57
SWIDTH 548 0
DWIDTH 8 0
BBX 8 8 0 0
ATTRIBUTES 0247
BITMAP
03
06
04
08
18
f0
e0
60
ENDCHAR
STARTCHAR colon
ENCODING 58
SWIDTH 685 0
DWIDTH 10 0
BBX 9 8 0 0
ATTRIBUTES 028f
BITMAP
0080
0180
4300
c600
dc00
f800
f000
6000
ENDCHAR
STARTCHAR semicolon
ENCODING 59
SWIDTH 754 0
DWIDTH 11 0
BBX 9 10 1 1
ATTRIBUTES 02d8
BITMAP
0800
3e00
7f00
ff80
ff80
ff80
ff80
7f00
7f00
1c00
ENDCHAR
STARTCHAR less
ENCODING 60
SWIDTH 617 0
DWIDTH 9 0
BBX 9 8 0 0
ATTRIBUTES 027c
BITMAP
3e00
4300
8180
8180
8180
8180
4100
7e00
ENDCHAR
STARTCHAR equal
ENCODING 61
SWIDTH 548 0
DWIDTH 8 0
BBX 8 8 0 0
ATTRIBUTES 0230
BITMAP
ff
ff
ff
ff
ff
ff
ff
ff
ENDCHAR
STARTCHAR greater
ENCODING 62
SWIDTH 548 0
DWIDTH 8 0
BBX 8 8 0 0
ATTRIBUTES 0227
BITMAP
fe
83
83
83
83
83
ff
7f
ENDCHAR
STARTCHAR question
ENCODING 63
SWIDTH 548 0
DWIDTH 8 0
BBX 8 8 0 0
ATTRIBUTES 0230
BITMAP
7f
ff
83
83
83
83
83
fe
ENDCHAR
STARTCHAR at
ENCODING 64
SWIDTH 548 0
DWIDTH 8 0
BBX 8 8 0 0
ATTRIBUTES 0227
BITMAP
ff
81
81
81
81
81
81
fe
ENDCHAR
STARTCHAR A
ENCODING 65
SWIDTH 754 0
DWIDTH 11 0
BBX 8 8 2 2
ATTRIBUTES 02dc
BITMAP
08
18
3c
7e
ff
7e
3c
18
ENDCHAR
STARTCHAR B
ENCODING 66
SWIDTH 548 0
DWIDTH 8 0
BBX 8 8 0 0
ATTRIBUTES 0240
BITMAP
08
18
3a
e6
67
5a
18
08
ENDCHAR
STARTCHAR C
ENCODING 67
SWIDTH 411 0
DWIDTH 6 0
BBX 6 8 0 0
ATTRIBUTES 01a7
BITMAP
10
30
78
fc
fc
78
30
10
ENDCHAR
STARTCHAR D
ENCODING 68
SWIDTH 548 0
DWIDTH 8 0
BBX 8 8 0 0
ATTRIBUTES 0237
BITMAP
18
18
18
4a
ff
08
18
18
ENDCHAR
STARTCHAR E
ENCODING 69
SWIDTH 548 0
DWIDTH 8 0
BBX 8 8 0 0
ATTRIBUTES 0240
BITMAP
18
18
08
cb
ff
08
18
18
ENDCHAR
STARTCHAR F
ENCODING 70
SWIDTH 548 0
DWIDTH 8 0
BBX 8 8 0 0
ATTRIBUTES 0237
BITMAP
18
18
18
ff
ef
5a
38
18
ENDCHAR
STARTCHAR G
ENCODING 71
SWIDTH 548 0
DWIDTH 8 0
BBX 8 8 0 0
ATTRIBUTES 0240
BITMAP
18
18
18
ff
cb
48
18
18
ENDCHAR
STARTCHAR H
ENCODING 72
SWIDTH 548 0
DWIDTH 8 0
BBX 7 8 0 0
ATTRIBUTES 021f
BITMAP
10
54
38
38
30
38
54
10
ENDCHAR
STARTCHAR I
ENCODING 73
SWIDTH 548 0
DWIDTH 8 0
BBX 8 8 0 0
ATTRIBUTES 0240
BITMAP
08
4a
2c
18
18
2c
4c
08
ENDCHAR
STARTCHAR J
ENCODING 74
SWIDTH 548 0
DWIDTH 8 0
BBX 8 8 0 0
ATTRIBUTES 0240
BITMAP
08
4e
3c
34
5c
36
7e
18
ENDCHAR
STARTCHAR K
ENCODING 75
SWIDTH 480 0
DWIDTH 7 0
BBX 7 8 0 0
ATTRIBUTES 01fb
BITMAP
10
10
96
78
38
54
10
10
ENDCHAR
STARTCHAR L
ENCODING 76
SWIDTH 548 0
DWIDTH 8 0
BBX 8 8 0 0
ATTRIBUTES 0237
BITMAP
24
28
99
7e
3c
db
38
24
ENDCHAR
STARTCHAR M
ENCODING 77
SWIDTH 548 0
DWIDTH 8 0
BBX 8 8 0 0
ATTRIBUTES 0240
BITMAP
24
3c
ff
3c
7e
b9
3c
24
ENDCHAR
STARTCHAR N
ENCODING 78
SWIDTH 617 0
DWIDTH 9 0
BBX 8 8 0 0
ATTRIBUTES 025c
BITMAP
2c
2c
7e
3c
7e
7e
2c
2c
ENDCHAR
STARTCHAR O
ENCODING 79
SWIDTH 480 0
DWIDTH 7 0
BBX 7 8 0 -1
ATTRIBUTES 01df
BITMAP
24
3c
18
38
28
6c
c0
80
ENDCHAR
STARTCHAR P
ENCODING 80
SWIDTH 480 0
DWIDTH 7 0
BBX 7 8 0 0
ATTRIBUTES 0204
BITMAP
44
6e
7c
38
38
7c
dc
c8
ENDCHAR
STARTCHAR Q
ENCODING 81
SWIDTH 548 0
DWIDTH 8 0
BBX 7 8 0 0
ATTRIBUTES 0247
BITMAP
1c
1c
6a
8a
8a
6a
1c
1c
ENDCHAR
STARTCHAR R
ENCODING 82
SWIDTH 548 0
DWIDTH 8 0
BBX 8 8 0 0
ATTRIBUTES 0247
BITMAP
18
18
18
ff
ff
18
18
18
ENDCHAR
STARTCHAR S
ENCODING 83
SWIDTH 548 0
DWIDTH 8 0
BBX 8 8 0 0
ATTRIBUTES 0247
BITMAP
18
18
18
ff
ff
18
18
38
ENDCHAR
STARTCHAR T
ENCODING 84
SWIDTH 548 0
DWIDTH 8 0
BBX 8 8 0 0
ATTRIBUTES 0237
BITMAP
18
18
18
e7
e7
18
18
18
ENDCHAR
STARTCHAR U
ENCODING 85
SWIDTH 617 0
DWIDTH 9 0
BBX 8 8 0 0
ATTRIBUTES 0273
BITMAP
10
10
18
ff
24
3c
2c
24
ENDCHAR
STARTCHAR V
ENCODING 86
SWIDTH 617 0
DWIDTH 9 0
BBX 8 8 0 0
ATTRIBUTES 026c
BITMAP
08
18
18
7e
5a
3c
7a
66
ENDCHAR
STARTCHAR W
ENCODING 87
SWIDTH 617 0
DWIDTH 9 0
BBX 8 8 0 0
ATTRIBUTES 024f
BITMAP
08
18
2c
fb
5e
3a
7e
66
ENDCHAR
STARTCHAR X
ENCODING 88
SWIDTH 617 0
DWIDTH 9 0
BBX 8 8 0 0
ATTRIBUTES 024f
BITMAP
08
18
2c
cf
3c
3c
3c
22
ENDCHAR
STARTCHAR Y
ENCODING 89
SWIDTH 617 0
DWIDTH 9 0
BBX 8 8 0 0
ATTRIBUTES 025f
BITMAP
08
08
18
7e
2c
3a
36
22
ENDCHAR
STARTCHAR Z
ENCODING 90
SWIDTH 685 0
DWIDTH 10 0
BBX 9 8 0 0
ATTRIBUTES 02a8
BITMAP
1800
1c00
2400
4300
2600
2200
3e00
7300
ENDCHAR
STARTCHAR bracketleft
ENCODING 91
SWIDTH 274 0
DWIDTH 4 0
BBX 2 13 1 -3
ATTRIBUTES 0117
BITMAP
c0
80
80
80
80
80
80
80
80
80
80
80
c0
ENDCHAR
STARTCHAR backslash
ENCODING 92
SWIDTH 891 0
DWIDTH 13 0
BBX 11 11 1 0
ATTRIBUTES 037c
BITMAP
1f00
3f80
79c0
75c0
eee0
eee0
eee0
75c0
7bc0
3f80
1f00
ENDCHAR
STARTCHAR bracketright
ENCODING 93
SWIDTH 891 0
DWIDTH 13 0
BBX 11 11 1 0
ATTRIBUTES 037c
BITMAP
1f00
3f80
73c0
7bc0
fbe0
fbe0
fbe0
7bc0
7bc0
3f80
1f00
ENDCHAR
STARTCHAR asciicircum
ENCODING 94
SWIDTH 891 0
DWIDTH 13 0
BBX 11 11 1 0
ATTRIBUTES 037c
BITMAP
1f00
3f80
71c0
7ec0
fee0
fde0
fbe0
77c0
60c0
3f80
1f00
ENDCHAR
STARTCHAR underscore
ENCODING 95
SWIDTH 891 0
DWIDTH 13 0
BBX 11 11 1 0
ATTRIBUTES 037c
BITMAP
1f00
3f80
71c0
7ec0
fee0
f1e0
fee0
7ec0
71c0
3f80
1f00
ENDCHAR
STARTCHAR grave
ENCODING 96
SWIDTH 891 0
DWIDTH 13 0
BBX 11 11 1 0
ATTRIBUTES 037c
BITMAP
1f00
3f80
7dc0
79c0
f5e0
ede0
e0e0
7dc0
7dc0
3f80
1f00
ENDCHAR
STARTCHAR a
ENCODING 97
SWIDTH 891 0
DWIDTH 13 0
BBX 11 11 1 0
ATTRIBUTES 037c
BITMAP
1f00
3f80
70c0
77c0
f7e0
f1e0
fee0
7ec0
71c0
3f80
1f00
ENDCHAR
STARTCHAR b
ENCODING 98
SWIDTH 891 0
DWIDTH 13 0
BBX 11 11 1 0
ATTRIBUTES 037c
BITMAP
1f00
3f80
70c0
77c0
efe0
e9e0
eee0
7ec0
71c0
3f80
1f00
ENDCHAR
STARTCHAR c
ENCODING 99
SWIDTH 891 0
DWIDTH 13 0
BBX 10 11 2 0
ATTRIBUTES 037c
BITMAP
1e00
3f00
7f80
e1c0
fdc0
fbc0
fbc0
f7c0
7780
3f00
1e00
ENDCHAR
STARTCHAR d
ENCODING 100
SWIDTH 891 0
DWIDTH 13 0
BBX 11 11 1 0
ATTRIBUTES 037c
BITMAP
1f00
3f80
71c0
6ec0
e5e0
f1e0
ece0
6ec0
71c0
3f80
1f00
ENDCHAR
STARTCHAR e
ENCODING 101
SWIDTH 891 0
DWIDTH 13 0
BBX 11 11 1 0
ATTRIBUTES 037c
BITMAP
1f00
3f80
73c0
6fc0
eee0
eee0
f2e0
7dc0
63c0
3f80
1f00
ENDCHAR
STARTCHAR f
ENCODING 102
SWIDTH 891 0
DWIDTH 13 0
BBX 10 11 1 0
ATTRIBUTES 037c
BITMAP
1e00
3f80
4c80
6b40
eb40
eb40
eb40
6b40
6c80
3f80
1e00
ENDCHAR
STARTCHAR g
ENCODING 103
SWIDTH 891 0
DWIDTH 13 0
BBX 11 11 1 0
ATTRIBUTES 037c
BITMAP
0e00
3180
4e40
5240
5320
9320
9320
5240
4e40
3180
1f00
ENDCHAR
STARTCHAR h
ENCODING 104
SWIDTH 891 0
DWIDTH 13 0
BBX 10 11 2 0
ATTRIBUTES 037c
BITMAP
1e00
2100
4c80
8440
8440
8440
8440
8440
4480
2100
1e00
ENDCHAR
STARTCHAR i
ENCODING 105
SWIDTH 891 0
DWIDTH 13 0
BBX 10 11 2 0
ATTRIBUTES 037c
BITMAP
1c00
2300
5c80
8240
8240
8440
8840
8840
5e80
2100
1e00
ENDCHAR
STARTCHAR j
ENCODING 106
SWIDTH 891 0
DWIDTH 13 0
BBX 11 11 1 0
ATTRIBUTES 037c
BITMAP
0e00
3180
4e40
4140
4220
8c20
8320
4140
4140
3180
1f00
ENDCHAR
STARTCHAR k
ENCODING 107
SWIDTH 891 0
DWIDTH 13 0
BBX 11 11 1 0
ATTRIBUTES 037c
BITMAP
0e00
3180
4640
4a40
4a20
9220
bf20
4240
4240
3180
1f00
ENDCHAR
STARTCHAR l
ENCODING 108
SWIDTH 891 0
DWIDTH 13 0
BBX 11 11 1 0
ATTRIBUTES 037c
BITMAP
0e00
3180
4f40
4840
4820
8e20
8120
4140
4140
3180
1f00
ENDCHAR
STARTCHAR m
ENCODING 109
SWIDTH 891 0
DWIDTH 13 0
BBX 11 11 1 0
ATTRIBUTES 037c
BITMAP
0e00
3180
4e40
4840
5020
9e20
9320
4b40
4e40
3180
1f00
ENDCHAR
STARTCHAR n
ENCODING 110
SWIDTH 891 0
DWIDTH 13 0
BBX 10 11 2 0
ATTRIBUTES 037c
BITMAP
1c00
2300
4080
9e40
8240
8440
8440
8840
4880
2100
1e00
ENDCHAR
STARTCHAR o
ENCODING 111
SWIDTH 891 0
DWIDTH 13 0
BBX 11 11 1 0
ATTRIBUTES 037c
BITMAP
0e00
3180
4e40
5240
4e20
8c20
9320
5340
5e40
3180
1f00
ENDCHAR
STARTCHAR p
ENCODING 112
SWIDTH 891 0
DWIDTH 13 0
BBX 11 11 1 0
ATTRIBUTES 037c
BITMAP
0e00
3180
4c40
5b40
5920
9920
8f20
4240
4240
3180
1f00
ENDCHAR
STARTCHAR q
ENCODING 113
SWIDTH 891 0
DWIDTH 13 0
BBX 11 11 1 0
ATTRIBUTES 037c
BITMAP
0e00
3180
7340
54c0
54a0
94a0
94a0
54c0
5340
3180
1f00
ENDCHAR
STARTCHAR r
ENCODING 114
SWIDTH 1028 0
DWIDTH 15 0
BBX 13 12 1 0
ATTRIBUTES 0410
BITMAP
fff0
8018
8018
9f98
8018
8018
8018
8018
8018
8018
fff8
7ff8
ENDCHAR
STARTCHAR s
ENCODING 115
SWIDTH 1097 0
DWIDTH 16 0
BBX 14 12 1 1
ATTRIBUTES 042f
BITMAP
7f80
80fc
80dc
80dc
80dc
ffdc
93dc
93dc
ffdc
93dc
ffdc
fffc
ENDCHAR
STARTCHAR t
ENCODING 116
SWIDTH 1028 0
DWIDTH 15 0
BBX 13 11 1 1
ATTRIBUTES 041a
BITMAP
1fc0
7ff0
fdf8
efb8
efb8
18c0
18c0
18c0
38e0
3fe0
3fe0
ENDCHAR
STARTCHAR u
ENCODING 117
SWIDTH 548 0
DWIDTH 8 0
BBX 5 8 1 0
ATTRIBUTES 022c
BITMAP
88
88
88
88
88
88
98
78
ENDCHAR
STARTCHAR v
ENCODING 118
SWIDTH 480 0
DWIDTH 7 0
BBX 7 8 0 0
ATTRIBUTES 01f4
BITMAP
c2
44
44
6c
28
28
38
10
ENDCHAR
STARTCHAR w
ENCODING 119
SWIDTH 754 0
DWIDTH 11 0
BBX 10 8 0 0
ATTRIBUTES 02d4
BITMAP
8c40
ccc0
4c80
4c80
5280
3300
3300
3300
ENDCHAR
STARTCHAR x
ENCODING 120
SWIDTH 480 0
DWIDTH 7 0
BBX 7 8 0 0
ATTRIBUTES 01f4
BITMAP
44
6c
28
10
38
28
6c
c6
ENDCHAR
STARTCHAR y
ENCODING 121
SWIDTH 480 0
DWIDTH 7 0
BBX 7 11 0 -3
ATTRIBUTES 01f4
BITMAP
82
c6
44
64
28
28
38
10
10
20
60
ENDCHAR
STARTCHAR z
ENCODING 122
SWIDTH 480 0
DWIDTH 7 0
BBX 7 8 0 0
ATTRIBUTES 01f4
BITMAP
fe
04
08
18
30
60
c0
fe
ENDCHAR
STARTCHAR braceleft
ENCODING 123
SWIDTH 342 0
DWIDTH 5 0
BBX 4 14 0 -3
ATTRIBUTES 014f
BITMAP
10
30
60
60
60
40
c0
80
40
40
60
60
20
30
ENDCHAR
STARTCHAR bar
ENCODING 124
SWIDTH 274 0
DWIDTH 4 0
BBX 1 14 1 -3
ATTRIBUTES 0103
BITMAP
80
80
80
80
80
80
80
80
80
80
80
80
80
80
ENDCHAR
STARTCHAR braceright
ENCODING 125
SWIDTH 342 0
DWIDTH 5 0
BBX 4 14 0 -3
ATTRIBUTES 014f
BITMAP
80
c0
40
60
60
20
30
10
20
60
60
60
40
c0
ENDCHAR
STARTCHAR asciitilde
ENCODING 126
SWIDTH 548 0
DWIDTH 8 0
BBX 7 2 0 4
ATTRIBUTES 0247
BITMAP
f2
9e
ENDCHAR
STARTCHAR C000177
ENCODING 127
SWIDTH 480 0
DWIDTH 7 0
BBX 7 7 0 0
ATTRIBUTES 01f7
BITMAP
fe
82
82
82
82
82
fe
ENDCHAR
STARTCHAR C000200
ENCODING 128
SWIDTH 754 0
DWIDTH 11 0
BBX 8 9 1 0
ATTRIBUTES 02ee
BITMAP
ff
81
81
81
81
81
81
81
ff
ENDCHAR
STARTCHAR C000201
ENCODING 129
SWIDTH 754 0
DWIDTH 11 0
BBX 8 9 1 0
ATTRIBUTES 02ee
BITMAP
ff
81
81
81
81
81
81
81
ff
ENDCHAR
STARTCHAR C000202
ENCODING 130
SWIDTH 754 0
DWIDTH 11 0
BBX 8 9 1 0
ATTRIBUTES 02ee
BITMAP
ff
81
81
81
81
81
81
81
ff
ENDCHAR
STARTCHAR C000203
ENCODING 131
SWIDTH 754 0
DWIDTH 11 0
BBX 8 9 1 0
ATTRIBUTES 02ee
BITMAP
ff
81
81
81
81
81
81
81
ff
ENDCHAR
STARTCHAR C000204
ENCODING 132
SWIDTH 754 0
DWIDTH 11 0
BBX 8 9 1 0
ATTRIBUTES 02ee
BITMAP
ff
81
81
81
81
81
81
81
ff
ENDCHAR
STARTCHAR C000205
ENCODING 133
SWIDTH 754 0
DWIDTH 11 0
BBX 8 9 1 0
ATTRIBUTES 02ee
BITMAP
ff
81
81
81
81
81
81
81
ff
ENDCHAR
STARTCHAR C000206
ENCODING 134
SWIDTH 754 0
DWIDTH 11 0
BBX 8 9 1 0
ATTRIBUTES 02ee
BITMAP
ff
81
81
81
81
81
81
81
ff
ENDCHAR
STARTCHAR C000207
ENCODING 135
SWIDTH 754 0
DWIDTH 11 0
BBX 8 9 1 0
ATTRIBUTES 02ee
BITMAP
ff
81
81
81
81
81
81
81
ff
ENDCHAR
STARTCHAR C000210
ENCODING 136
SWIDTH 754 0
DWIDTH 11 0
BBX 8 9 1 0
ATTRIBUTES 02ee
BITMAP
ff
81
81
81
81
81
81
81
ff
ENDCHAR
STARTCHAR C000211
ENCODING 137
SWIDTH 754 0
DWIDTH 11 0
BBX 8 9 1 0
ATTRIBUTES 02ee
BITMAP
ff
81
81
81
81
81
81
81
ff
ENDCHAR
STARTCHAR C000212
ENCODING 138
SWIDTH 754 0
DWIDTH 11 0
BBX 8 9 1 0
ATTRIBUTES 02ee
BITMAP
ff
81
81
81
81
81
81
81
ff
ENDCHAR
STARTCHAR C000213
ENCODING 139
SWIDTH 754 0
DWIDTH 11 0
BBX 8 9 1 0
ATTRIBUTES 02ee
BITMAP
ff
81
81
81
81
81
81
81
ff
ENDCHAR
STARTCHAR C000214
ENCODING 140
SWIDTH 754 0
DWIDTH 11 0
BBX 8 9 1 0
ATTRIBUTES 02ee
BITMAP
ff
81
81
81
81
81
81
81
ff
ENDCHAR
STARTCHAR C000215
ENCODING 141
SWIDTH 754 0
DWIDTH 11 0
BBX 8 9 1 0
ATTRIBUTES 02ee
BITMAP
ff
81
81
81
81
81
81
81
ff
ENDCHAR
STARTCHAR C000216
ENCODING 142
SWIDTH 754 0
DWIDTH 11 0
BBX 8 9 1 0
ATTRIBUTES 02ee
BITMAP
ff
81
81
81
81
81
81
81
ff
ENDCHAR
STARTCHAR C000217
ENCODING 143
SWIDTH 754 0
DWIDTH 11 0
BBX 8 9 1 0
ATTRIBUTES 02ee
BITMAP
ff
81
81
81
81
81
81
81
ff
ENDCHAR
STARTCHAR C000220
ENCODING 144
SWIDTH 754 0
DWIDTH 11 0
BBX 8 9 1 0
ATTRIBUTES 02ee
BITMAP
ff
81
81
81
81
81
81
81
ff
ENDCHAR
STARTCHAR C000221
ENCODING 145
SWIDTH 754 0
DWIDTH 11 0
BBX 8 9 1 0
ATTRIBUTES 02ee
BITMAP
ff
81
81
81
81
81
81
81
ff
ENDCHAR
STARTCHAR C000222
ENCODING 146
SWIDTH 754 0
DWIDTH 11 0
BBX 8 9 1 0
ATTRIBUTES 02ee
BITMAP
ff
81
81
81
81
81
81
81
ff
ENDCHAR
STARTCHAR C000223
ENCODING 147
SWIDTH 754 0
DWIDTH 11 0
BBX 8 9 1 0
ATTRIBUTES 02ee
BITMAP
ff
81
81
81
81
81
81
81
ff
ENDCHAR
STARTCHAR C000224
ENCODING 148
SWIDTH 754 0
DWIDTH 11 0
BBX 8 9 1 0
ATTRIBUTES 02ee
BITMAP
ff
81
81
81
81
81
81
81
ff
ENDCHAR
STARTCHAR C000225
ENCODING 149
SWIDTH 754 0
DWIDTH 11 0
BBX 8 9 1 0
ATTRIBUTES 02ee
BITMAP
ff
81
81
81
81
81
81
81
ff
ENDCHAR
STARTCHAR C000226
ENCODING 150
SWIDTH 754 0
DWIDTH 11 0
BBX 8 9 1 0
ATTRIBUTES 02ee
BITMAP
ff
81
81
81
81
81
81
81
ff
ENDCHAR
STARTCHAR C000227
ENCODING 151
SWIDTH 754 0
DWIDTH 11 0
BBX 8 9 1 0
ATTRIBUTES 02ee
BITMAP
ff
81
81
81
81
81
81
81
ff
ENDCHAR
STARTCHAR C000230
ENCODING 152
SWIDTH 754 0
DWIDTH 11 0
BBX 8 9 1 0
ATTRIBUTES 02ee
BITMAP
ff
81
81
81
81
81
81
81
ff
ENDCHAR
STARTCHAR C000231
ENCODING 153
SWIDTH 754 0
DWIDTH 11 0
BBX 8 9 1 0
ATTRIBUTES 02ee
BITMAP
ff
81
81
81
81
81
81
81
ff
ENDCHAR
STARTCHAR C000232
ENCODING 154
SWIDTH 754 0
DWIDTH 11 0
BBX 8 9 1 0
ATTRIBUTES 02ee
BITMAP
ff
81
81
81
81
81
81
81
ff
ENDCHAR
STARTCHAR C000233
ENCODING 155
SWIDTH 754 0
DWIDTH 11 0
BBX 8 9 1 0
ATTRIBUTES 02ee
BITMAP
ff
81
81
81
81
81
81
81
ff
ENDCHAR
STARTCHAR C000234
ENCODING 156
SWIDTH 754 0
DWIDTH 11 0
BBX 8 9 1 0
ATTRIBUTES 02ee
BITMAP
ff
81
81
81
81
81
81
81
ff
ENDCHAR
STARTCHAR C000235
ENCODING 157
SWIDTH 754 0
DWIDTH 11 0
BBX 8 9 1 0
ATTRIBUTES 02ee
BITMAP
ff
81
81
81
81
81
81
81
ff
ENDCHAR
STARTCHAR C000236
ENCODING 158
SWIDTH 754 0
DWIDTH 11 0
BBX 8 9 1 0
ATTRIBUTES 02ee
BITMAP
ff
81
81
81
81
81
81
81
ff
ENDCHAR
STARTCHAR C000237
ENCODING 159
SWIDTH 754 0
DWIDTH 11 0
BBX 8 9 1 0
ATTRIBUTES 02ee
BITMAP
ff
81
81
81
81
81
81
81
ff
ENDCHAR
STARTCHAR nobreakspace
ENCODING 160
SWIDTH 274 0
DWIDTH 4 0
BBX 0 0 0 0
ATTRIBUTES 0117
BITMAP
ENDCHAR
STARTCHAR exclamdown
ENCODING 161
SWIDTH 342 0
DWIDTH 5 0
BBX 1 11 2 -3
ATTRIBUTES 014c
BITMAP
80
80
00
80
80
80
80
80
80
80
80
ENDCHAR
STARTCHAR cent
ENCODING 162
SWIDTH 548 0
DWIDTH 8 0
BBX 7 13 0 -3
ATTRIBUTES 022c
BITMAP
04
04
18
6c
ce
d0
90
d2
64
38
20
40
40
ENDCHAR
STARTCHAR sterling
ENCODING 163
SWIDTH 548 0
DWIDTH 8 0
BBX 7 11 0 0
ATTRIBUTES 022c
BITMAP
08
7c
44
40
40
f8
60
60
40
fe
8e
ENDCHAR
STARTCHAR currency
ENCODING 164
SWIDTH 548 0
DWIDTH 8 0
BBX 7 7 0 2
ATTRIBUTES 022c
BITMAP
42
fe
44
44
44
6c
fe
ENDCHAR
STARTCHAR yen
ENCODING 165
SWIDTH 548 0
DWIDTH 8 0
BBX 8 10 0 0
ATTRIBUTES 022c
BITMAP
c3
42
24
24
18
ff
18
ff
18
18
ENDCHAR
STARTCHAR brokenbar
ENCODING 166
SWIDTH 274 0
DWIDTH 4 0
BBX 1 14 1 -3
ATTRIBUTES 0103
BITMAP
80
80
80
80
80
80
00
00
80
80
80
80
80
80
ENDCHAR
STARTCHAR section
ENCODING 167
SWIDTH 548 0
DWIDTH 8 0
BBX 7 14 0 -3
ATTRIBUTES 022c
BITMAP
10
6c
44
60
30
d8
86
c2
62
1c
0c
44
44
38
ENDCHAR
STARTCHAR diaeresis
ENCODING 168
SWIDTH 342 0
DWIDTH 5 0
BBX 3 1 1 9
ATTRIBUTES 014c
BITMAP
a0
ENDCHAR
STARTCHAR copyright
ENCODING 169
SWIDTH 754 0
DWIDTH 11 0
BBX 11 10 0 0
ATTRIBUTES 02df
BITMAP
1e00
2180
5e40
7120
a020
a020
7120
4e40
2180
1e00
ENDCHAR
STARTCHAR ordfeminine
ENCODING 170
SWIDTH 342 0
DWIDTH 5 0
BBX 5 5 0 5
ATTRIBUTES 0174
BITMAP
70
88
78
98
68
ENDCHAR
STARTCHAR guillemotleft
ENCODING 171
SWIDTH 548 0
DWIDTH 8 0
BBX 6 6 1 1
ATTRIBUTES 022c
BITMAP
24
48
58
d0
48
28
ENDCHAR
STARTCHAR notsign
ENCODING 172
SWIDTH 548 0
DWIDTH 8 0
BBX 7 4 0 3
ATTRIBUTES 0247
BITMAP
fe
02
02
02
ENDCHAR
STARTCHAR hyphen
ENCODING 173
SWIDTH 342 0
DWIDTH 5 0
BBX 4 1 0 3
ATTRIBUTES 014c
BITMAP
f0
ENDCHAR
STARTCHAR registered
ENCODING 174
SWIDTH 754 0
DWIDTH 11 0
BBX 11 11 0 0
ATTRIBUTES 02df
BITMAP
0e00
3180
4040
5e20
9120
9220
9e20
5220
5140
2180
1e00
ENDCHAR
STARTCHAR macron
ENCODING 175
SWIDTH 548 0
DWIDTH 8 0
BBX 8 1 0 11
ATTRIBUTES 0227
BITMAP
ff
ENDCHAR
STARTCHAR degree
ENCODING 176
SWIDTH 411 0
DWIDTH 6 0
BBX 4 4 1 7
ATTRIBUTES 018f
BITMAP
60
90
90
60
ENDCHAR
STARTCHAR plusminus
ENCODING 177
SWIDTH 548 0
DWIDTH 8 0
BBX 7 9 0 0
ATTRIBUTES 0223
BITMAP
10
10
10
fe
10
10
10
00
fe
ENDCHAR
STARTCHAR twosuperior
ENCODING 178
SWIDTH 342 0
DWIDTH 5 0
BBX 4 6 0 5
ATTRIBUTES 014c
BITMAP
70
90
10
20
40
f0
ENDCHAR
STARTCHAR threesuperior
ENCODING 179
SWIDTH 342 0
DWIDTH 5 0
BBX 4 6 0 5
ATTRIBUTES 014c
BITMAP
60
90
20
30
90
60
ENDCHAR
STARTCHAR acute
ENCODING 180
SWIDTH 342 0
DWIDTH 5 0
BBX 2 2 2 8
ATTRIBUTES 014c
BITMAP
80
80
ENDCHAR
STARTCHAR mu
ENCODING 181
SWIDTH 548 0
DWIDTH 8 0
BBX 5 11 2 -3
ATTRIBUTES 0240
BITMAP
88
88
88
88
88
88
d8
f8
80
80
80
ENDCHAR
STARTCHAR paragraph
ENCODING 182
SWIDTH 548 0
DWIDTH 8 0
BBX 8 13 0 -3
ATTRIBUTES 0218
BITMAP
7f
f6
f6
f6
76
16
16
16
16
16
16
16
16
ENDCHAR
STARTCHAR periodcentered
ENCODING 183
SWIDTH 274 0
DWIDTH 4 0
BBX 1 2 2 4
ATTRIBUTES 0117
BITMAP
80
80
ENDCHAR
STARTCHAR cedilla
ENCODING 184
SWIDTH 342 0
DWIDTH 5 0
BBX 3 3 1 -3
ATTRIBUTES 014c
BITMAP
40
20
e0
ENDCHAR
STARTCHAR onesuperior
ENCODING 185
SWIDTH 480 0
DWIDTH 7 0
BBX 7 7 0 0
ATTRIBUTES 01f7
BITMAP
fe
82
82
82
82
82
fe
ENDCHAR
STARTCHAR masculine
ENCODING 186
SWIDTH 342 0
DWIDTH 5 0
BBX 4 5 1 5
ATTRIBUTES 016b
BITMAP
60
90
90
90
60
ENDCHAR
STARTCHAR guillemotright
ENCODING 187
SWIDTH 548 0
DWIDTH 8 0
BBX 6 6 1 1
ATTRIBUTES 022c
BITMAP
90
48
68
2c
48
50
ENDCHAR
STARTCHAR onequarter
ENCODING 188
SWIDTH 822 0
DWIDTH 12 0
BBX 11 11 0 0
ATTRIBUTES 0343
BITMAP
6040
e080
a100
2100
2200
2400
0c40
08c0
1140
21e0
2040
ENDCHAR
STARTCHAR onehalf
ENCODING 189
SWIDTH 822 0
DWIDTH 12 0
BBX 11 11 0 0
ATTRIBUTES 0343
BITMAP
6040
e080
a100
2200
2200
2400
09c0
1920
1040
2080
41e0
ENDCHAR
STARTCHAR threequarters
ENCODING 190
SWIDTH 822 0
DWIDTH 12 0
BBX 11 11 0 0
ATTRIBUTES 0343
BITMAP
6040
9080
2100
3100
9200
6400
0440
08c0
11c0
11e0
2040
ENDCHAR
STARTCHAR questiondown
ENCODING 191
SWIDTH 617 0
DWIDTH 9 0
BBX 7 11 1 -3
ATTRIBUTES 0263
BITMAP
10
10
00
10
10
20
40
c0
c6
44
38
ENDCHAR
STARTCHAR Agrave
ENCODING 192
SWIDTH 685 0
DWIDTH 10 0
BBX 9 13 0 0
ATTRIBUTES 029b
BITMAP
0800
0000
0800
1c00
1400
1400
2600
2200
2200
7f00
4100
4100
c180
ENDCHAR
STARTCHAR Aacute
ENCODING 193
SWIDTH 685 0
DWIDTH 10 0
BBX 9 13 0 0
ATTRIBUTES 029b
BITMAP
0c00
0000
0800
1c00
1400
1400
2600
2200
2200
7f00
4100
4100
c180
ENDCHAR
STARTCHAR Acircumflex
ENCODING 194
SWIDTH 685 0
DWIDTH 10 0
BBX 9 13 0 0
ATTRIBUTES 029b
BITMAP
1c00
0000
0800
1c00
1400
1400
2600
2200
2200
7f00
4100
4100
c180
ENDCHAR
STARTCHAR Atilde
ENCODING 195
SWIDTH 685 0
DWIDTH 10 0
BBX 9 13 0 0
ATTRIBUTES 029b
BITMAP
1200
2c00
0000
1800
1400
1400
3600
2200
2200
7f00
4100
4100
c180
ENDCHAR
STARTCHAR Adiaeresis
ENCODING 196
SWIDTH 685 0
DWIDTH 10 0
BBX 10 13 0 0
ATTRIBUTES 029b
BITMAP
1400
0000
0c00
1400
1600
1600
3600
2300
2300
7f80
4180
4080
c0c0
ENDCHAR
STARTCHAR Aring
ENCODING 197
SWIDTH 685 0
DWIDTH 10 0
BBX 9 13 0 0
ATTRIBUTES 029b
BITMAP
0800
1400
1800
1800
1400
1400
3600
2200
2200
7f00
4100
4100
c180
ENDCHAR
STARTCHAR AE
ENCODING 198
SWIDTH 1028 0
DWIDTH 15 0
BBX 13 10 1 0
ATTRIBUTES 03e8
BITMAP
0ff8
0900
1900
1900
11f0
31f0
3f00
6100
4100
c1f8
ENDCHAR
STARTCHAR Ccedilla
ENCODING 199
SWIDTH 754 0
DWIDTH 11 0
BBX 9 14 1 -3
ATTRIBUTES 02d4
BITMAP
0400
3f00
6100
c180
c000
8000
c000
c080
4180
6300
1c00
0800
0400
1800
ENDCHAR
STARTCHAR Egrave
ENCODING 200
SWIDTH 685 0
DWIDTH 10 0
BBX 8 13 1 0
ATTRIBUTES 029b
BITMAP
18
00
ff
ff
80
80
80
fe
fe
80
80
80
ff
ENDCHAR
STARTCHAR Eacute
ENCODING 201
SWIDTH 685 0
DWIDTH 10 0
BBX 8 13 1 0
ATTRIBUTES 029b
BITMAP
18
00
ff
ff
80
80
80
fe
fe
80
80
80
ff
ENDCHAR
STARTCHAR Ecircumflex
ENCODING 202
SWIDTH 685 0
DWIDTH 10 0
BBX 8 13 1 0
ATTRIBUTES 029b
BITMAP
38
00
ff
ff
80
80
80
fe
fe
80
80
80
ff
ENDCHAR
STARTCHAR Ediaeresis
ENCODING 203
SWIDTH 685 0
DWIDTH 10 0
BBX 8 13 1 0
ATTRIBUTES 029b
BITMAP
14
00
ff
ff
c0
c0
c0
ff
ff
c0
c0
c0
ff
ENDCHAR
STARTCHAR Igrave
ENCODING 204
SWIDTH 274 0
DWIDTH 4 0
BBX 2 13 1 0
ATTRIBUTES 0117
BITMAP
40
00
40
40
40
40
40
40
40
40
40
40
40
ENDCHAR
STARTCHAR Iacute
ENCODING 205
SWIDTH 274 0
DWIDTH 4 0
BBX 2 13 1 0
ATTRIBUTES 0117
BITMAP
80
00
80
80
80
80
80
80
80
80
80
80
80
ENDCHAR
STARTCHAR Icircumflex
ENCODING 206
SWIDTH 274 0
DWIDTH 4 0
BBX 5 13 0 0
ATTRIBUTES 0117
BITMAP
70
d8
00
20
20
20
20
20
20
20
20
20
20
ENDCHAR
STARTCHAR Idiaeresis
ENCODING 207
SWIDTH 274 0
DWIDTH 4 0
BBX 3 13 1 0
ATTRIBUTES 0117
BITMAP
a0
00
40
40
40
40
40
40
40
40
40
40
40
ENDCHAR
STARTCHAR ETH
ENCODING 208
SWIDTH 754 0
DWIDTH 11 0
BBX 9 10 0 0
ATTRIBUTES 02d4
BITMAP
7e00
6100
6180
6080
f880
f880
6080
6180
6100
7e00
ENDCHAR
STARTCHAR Ntilde
ENCODING 209
SWIDTH 754 0
DWIDTH 11 0
BBX 8 13 1 0
ATTRIBUTES 02d4
BITMAP
12
2c
00
c1
e1
a1
b1
99
89
8d
87
83
83
ENDCHAR
STARTCHAR Ograve
ENCODING 210
SWIDTH 754 0
DWIDTH 11 0
BBX 9 13 1 0
ATTRIBUTES 030b
BITMAP
0800
0000
1c00
6300
4100
c180
8080
8080
8080
c180
4100
2200
1c00
ENDCHAR
STARTCHAR Oacute
ENCODING 211
SWIDTH 754 0
DWIDTH 11 0
BBX 9 13 1 0
ATTRIBUTES 030b
BITMAP
0800
0000
1c00
6300
4100
c180
8080
8080
8080
c180
4100
2200
1c00
ENDCHAR
STARTCHAR Ocircumflex
ENCODING 212
SWIDTH 754 0
DWIDTH 11 0
BBX 9 13 1 0
ATTRIBUTES 030b
BITMAP
1c00
0000
1c00
6300
4100
c180
8080
8080
8080
c180
4100
2200
1c00
ENDCHAR
STARTCHAR Otilde
ENCODING 213
SWIDTH 754 0
DWIDTH 11 0
BBX 9 13 1 0
ATTRIBUTES 030b
BITMAP
3e00
0000
1c00
6300
4100
c180
8080
8080
8080
c180
4100
2200
1c00
ENDCHAR
STARTCHAR Odiaeresis
ENCODING 214
SWIDTH 754 0
DWIDTH 11 0
BBX 9 13 1 0
ATTRIBUTES 030b
BITMAP
1400
0000
3c00
6300
c180
8080
8080
8080
8080
8080
c180
6300
1c00
ENDCHAR
STARTCHAR multiply
ENCODING 215
SWIDTH 548 0
DWIDTH 8 0
BBX 6 6 1 2
ATTRIBUTES 0247
BITMAP
cc
78
30
30
48
84
ENDCHAR
STARTCHAR Ooblique
ENCODING 216
SWIDTH 754 0
DWIDTH 11 0
BBX 10 11 0 0
ATTRIBUTES 030b
BITMAP
0440
3f80
6180
4380
c2c0
c4c0
c8c0
d080
6080
6100
9e00
ENDCHAR
STARTCHAR Ugrave
ENCODING 217
SWIDTH 754 0
DWIDTH 11 0
BBX 8 13 1 0
ATTRIBUTES 02d4
BITMAP
10
18
00
81
81
81
81
81
81
83
c3
46
3c
ENDCHAR
STARTCHAR Uacute
ENCODING 218
SWIDTH 754 0
DWIDTH 11 0
BBX 8 13 1 0
ATTRIBUTES 02d4
BITMAP
08
18
00
81
81
81
81
81
81
83
c3
46
3c
ENDCHAR
STARTCHAR Ucircumflex
ENCODING 219
SWIDTH 754 0
DWIDTH 11 0
BBX 8 13 1 0
ATTRIBUTES 02d4
BITMAP
18
3c
00
81
81
81
81
81
81
83
c3
46
3c
ENDCHAR
STARTCHAR Udiaeresis
ENCODING 220
SWIDTH 754 0
DWIDTH 11 0
BBX 9 13 1 0
ATTRIBUTES 02d4
BITMAP
1400
1400
0000
c180
c180
c180
c180
c180
c180
c180
4100
6300
3e00
ENDCHAR
STARTCHAR Yacute
ENCODING 221
SWIDTH 685 0
DWIDTH 10 0
BBX 9 13 0 0
ATTRIBUTES 029b
BITMAP
0c00
0800
0000
4100
6300
2200
3400
1c00
0800
0800
0800
0800
0800
ENDCHAR
STARTCHAR THORN
ENCODING 222
SWIDTH 685 0
DWIDTH 10 0
BBX 8 10 1 0
ATTRIBUTES 029b
BITMAP
80
80
fe
83
83
83
86
fc
80
80
ENDCHAR
STARTCHAR ssharp
ENCODING 223
SWIDTH 617 0
DWIDTH 9 0
BBX 7 11 1 0
ATTRIBUTES 0263
BITMAP
10
78
c8
88
98
90
88
86
82
b6
9c
ENDCHAR
STARTCHAR agrave
ENCODING 224
SWIDTH 548 0
DWIDTH 8 0
BBX 7 10 0 0
ATTRIBUTES 022c
BITMAP
10
00
3c
44
c6
3e
76
c6
c6
7a
ENDCHAR
STARTCHAR aacute
ENCODING 225
SWIDTH 548 0
DWIDTH 8 0
BBX 7 10 0 0
ATTRIBUTES 022c
BITMAP
10
00
3c
44
c6
3e
76
c6
c6
7a
ENDCHAR
STARTCHAR acircumflex
ENCODING 226
SWIDTH 548 0
DWIDTH 8 0
BBX 7 10 0 0
ATTRIBUTES 022c
BITMAP
38
00
3c
44
c6
3e
76
c6
c6
7a
ENDCHAR
STARTCHAR atilde
ENCODING 227
SWIDTH 548 0
DWIDTH 8 0
BBX 7 10 0 0
ATTRIBUTES 022c
BITMAP
7c
00
3c
44
c6
3e
76
c6
c6
7a
ENDCHAR
STARTCHAR adiaeresis
ENCODING 228
SWIDTH 548 0
DWIDTH 8 0
BBX 6 10 1 0
ATTRIBUTES 022c
BITMAP
28
00
78
c4
84
3c
f4
84
8c
74
ENDCHAR
STARTCHAR aring
ENCODING 229
SWIDTH 548 0
DWIDTH 8 0
BBX 7 11 0 0
ATTRIBUTES 022c
BITMAP
10
38
00
3c
44
c6
3e
76
c6
c6
7a
ENDCHAR
STARTCHAR ae
ENCODING 230
SWIDTH 891 0
DWIDTH 13 0
BBX 11 8 1 0
ATTRIBUTES 0378
BITMAP
7b80
4e40
0420
3fe0
f7e0
c400
8e60
73c0
ENDCHAR
STARTCHAR ccedilla
ENCODING 231
SWIDTH 480 0
DWIDTH 7 0
BBX 7 11 0 -3
ATTRIBUTES 01f4
BITMAP
10
6c
c6
c0
80
c2
44
38
10
08
30
ENDCHAR
STARTCHAR egrave
ENCODING 232
SWIDTH 548 0
DWIDTH 8 0
BBX 7 10 0 0
ATTRIBUTES 022c
BITMAP
10
00
38
44
c6
fe
fe
c0
46
3c
ENDCHAR
STARTCHAR eacute
ENCODING 233
SWIDTH 548 0
DWIDTH 8 0
BBX 7 10 0 0
ATTRIBUTES 022c
BITMAP
10
00
38
44
c6
fe
fe
c0
46
3c
ENDCHAR
STARTCHAR ecircumflex
ENCODING 234
SWIDTH 548 0
DWIDTH 8 0
BBX 7 10 0 0
ATTRIBUTES 022c
BITMAP
38
00
38
44
c6
fe
fe
c0
46
3c
ENDCHAR
STARTCHAR ediaeresis
ENCODING 235
SWIDTH 548 0
DWIDTH 8 0
BBX 6 10 1 0
ATTRIBUTES 022c
BITMAP
28
00
78
cc
84
fc
fc
80
cc
78
ENDCHAR
STARTCHAR igrave
ENCODING 236
SWIDTH 274 0
DWIDTH 4 0
BBX 2 10 1 0
ATTRIBUTES 0117
BITMAP
40
00
40
40
40
40
40
40
40
40
ENDCHAR
STARTCHAR iacute
ENCODING 237
SWIDTH 274 0
DWIDTH 4 0
BBX 2 10 1 0
ATTRIBUTES 0117
BITMAP
80
00
80
80
80
80
80
80
80
80
ENDCHAR
STARTCHAR icircumflex
ENCODING 238
SWIDTH 274 0
DWIDTH 4 0
BBX 5 10 0 0
ATTRIBUTES 0117
BITMAP
70
d8
20
20
20
20
20
20
20
20
ENDCHAR
STARTCHAR idiaeresis
ENCODING 239
SWIDTH 274 0
DWIDTH 4 0
BBX 3 10 1 0
ATTRIBUTES 0117
BITMAP
a0
00
40
40
40
40
40
40
40
40
ENDCHAR
STARTCHAR eth
ENCODING 240
SWIDTH 548 0
DWIDTH 8 0
BBX 7 10 0 0
ATTRIBUTES 022c
BITMAP
1c
28
3c
6c
c6
c6
82
c6
44
38
ENDCHAR
STARTCHAR ntilde
ENCODING 241
SWIDTH 548 0
DWIDTH 8 0
BBX 5 10 2 0
ATTRIBUTES 022c
BITMAP
78
00
f0
88
88
88
88
88
88
88
ENDCHAR
STARTCHAR ograve
ENCODING 242
SWIDTH 548 0
DWIDTH 8 0
BBX 7 10 0 0
ATTRIBUTES 022c
BITMAP
10
00
38
6c
c6
82
82
c6
44
38
ENDCHAR
STARTCHAR oacute
ENCODING 243
SWIDTH 548 0
DWIDTH 8 0
BBX 7 10 0 0
ATTRIBUTES 022c
BITMAP
10
00
38
6c
c6
82
82
c6
44
38
ENDCHAR
STARTCHAR ocircumflex
ENCODING 244
SWIDTH 548 0
DWIDTH 8 0
BBX 7 10 0 0
ATTRIBUTES 022c
BITMAP
38
00
38
6c
c6
82
82
c6
44
38
ENDCHAR
STARTCHAR otilde
ENCODING 245
SWIDTH 548 0
DWIDTH 8 0
BBX 7 10 0 0
ATTRIBUTES 022c
BITMAP
7c
00
38
6c
c6
82
82
c6
44
38
ENDCHAR
STARTCHAR odiaeresis
ENCODING 246
SWIDTH 548 0
DWIDTH 8 0
BBX 7 10 0 0
ATTRIBUTES 022c
BITMAP
14
00
1c
66
42
42
42
42
66
3c
ENDCHAR
STARTCHAR division
ENCODING 247
SWIDTH 548 0
DWIDTH 8 0
BBX 7 6 0 2
ATTRIBUTES 0223
BITMAP
10
00
fe
00
10
10
ENDCHAR
STARTCHAR oslash
ENCODING 248
SWIDTH 617 0
DWIDTH 9 0
BBX 7 9 1 -1
ATTRIBUTES 0263
BITMAP
1a
6c
ce
ca
92
e6
44
78
40
ENDCHAR
STARTCHAR ugrave
ENCODING 249
SWIDTH 548 0
DWIDTH 8 0
BBX 5 10 1 0
ATTRIBUTES 022c
BITMAP
20
20
88
88
88
88
88
88
98
78
ENDCHAR
STARTCHAR uacute
ENCODING 250
SWIDTH 548 0
DWIDTH 8 0
BBX 5 10 1 0
ATTRIBUTES 022c
BITMAP
20
20
88
88
88
88
88
88
98
78
ENDCHAR
STARTCHAR ucircumflex
ENCODING 251
SWIDTH 548 0
DWIDTH 8 0
BBX 5 10 1 0
ATTRIBUTES 022c
BITMAP
70
00
88
88
88
88
88
88
98
78
ENDCHAR
STARTCHAR udiaeresis
ENCODING 252
SWIDTH 548 0
DWIDTH 8 0
BBX 5 10 1 0
ATTRIBUTES 022c
BITMAP
50
00
88
88
88
88
88
88
98
78
ENDCHAR
STARTCHAR yacute
ENCODING 253
SWIDTH 480 0
DWIDTH 7 0
BBX 7 13 0 -3
ATTRIBUTES 01f4
BITMAP
18
10
82
c6
44
64
28
28
38
10
10
20
60
ENDCHAR
STARTCHAR thorn
ENCODING 254
SWIDTH 548 0
DWIDTH 8 0
BBX 7 13 0 -3
ATTRIBUTES 022c
BITMAP
80
80
90
ec
c6
86
86
c6
c4
b8
80
80
80
ENDCHAR
STARTCHAR ydiaeresis
ENCODING 255
SWIDTH 480 0
DWIDTH 7 0
BBX 7 13 0 -3
ATTRIBUTES 01f4
BITMAP
28
00
c2
46
44
64
28
28
28
10
10
30
60
ENDCHAR
ENDFONT
